<svg width="40" height="40" viewBox="0 0 40 40" fill="none" xmlns="http://www.w3.org/2000/svg">
<path d="M38.453 4.95868C38.7908 6.34813 40 12.3967 40 20C40 27.6033 38.7908 33.6519 38.453 35.0413C38.011 36.8595 36.3536 38.7906 32.7072 39.2562C28.1768 39.8347 24.7514 40 20 40C15.2486 40 11.8232 39.8347 7.29282 39.2562C3.64641 38.7906 1.98895 36.8595 1.54697 35.0413C1.2092 33.6519 2.60812e-06 27.6033 2.94047e-06 20C7.08752e-06 12.3967 1.20919 6.34813 1.54696 4.95868C1.98895 3.14049 3.64641 1.20943 7.29282 0.743801C11.8232 0.165289 15.2486 -1.08192e-06 20 -8.74228e-07C24.7514 -6.66538e-07 28.1768 0.165289 32.7072 0.743801C36.3536 1.20943 38.011 3.1405 38.453 4.95868Z" fill="#CFD3D8"/>
<mask id="mask0_5501:67673" style="mask-type:alpha" maskUnits="userSpaceOnUse" x="0" y="0" width="40" height="40">
<path d="M38.453 4.95868C38.7908 6.34813 40 12.3967 40 20C40 27.6033 38.7908 33.6519 38.453 35.0413C38.011 36.8595 36.3536 38.7906 32.7072 39.2562C28.1768 39.8347 24.7514 40 20 40C15.2486 40 11.8232 39.8347 7.29282 39.2562C3.64641 38.7906 1.98895 36.8595 1.54697 35.0413C1.2092 33.6519 2.60812e-06 27.6033 2.94047e-06 20C7.08752e-06 12.3967 1.20919 6.34813 1.54696 4.95868C1.98895 3.14049 3.64641 1.20943 7.29282 0.743801C11.8232 0.165289 15.2486 -1.08192e-06 20 -8.74228e-07C24.7514 -6.66538e-07 28.1768 0.165289 32.7072 0.743801C36.3536 1.20943 38.011 3.1405 38.453 4.95868Z" fill="#BCC7D3"/>
</mask>
<g mask="url(#mask0_5501:67673)">
<path fill-rule="evenodd" clip-rule="evenodd" d="M25.6911 14.8181C25.5635 14.8566 25.4337 14.9006 25.3041 14.9527C25.7267 13.326 25.8914 12.6617 25.9581 12.1281C25.9581 12.1281 26.7072 9.40405 25.0387 8.58682C25.5105 7.9578 25.8005 7.75018 25.8941 7.69711C25.8488 7.71303 25.7572 7.73555 25.6176 7.73555C25.4249 7.73555 25.2295 7.55241 24.9708 7.31004C24.4648 6.83592 23.717 6.13515 22.2749 6.13515C22.3272 6.08985 22.3761 6.04748 22.4219 6.00785C22.8391 5.64695 22.9931 5.51364 22.972 5.47397C22.9595 5.45073 22.887 5.45963 22.7719 5.47374C22.4726 5.51045 21.8856 5.58243 21.3215 5.21577C20.1297 4.44111 17.9901 4.8412 17.4113 5.42007C17.37 5.36135 17.3119 5.30263 17.2477 5.2378C17.0513 5.03947 16.7984 4.78397 16.7984 4.29639C16.3326 4.48008 16.3198 5.05968 16.3073 5.61933C16.2951 6.16833 16.2833 6.69813 15.8449 6.81617C14.9596 7.05452 14.585 7.39504 14.1083 8.58682C14.029 8.78505 13.9655 8.95878 13.9098 9.11131C13.6303 9.87584 13.5455 10.1077 12.6441 10.2213C12.6441 10.2213 12.9846 10.5958 13.4954 10.7661C13.5443 10.9199 13.5444 11.0633 13.5446 11.2655C13.5448 11.5777 13.5452 12.03 13.7254 12.8773C13.8811 13.6097 14.0983 14.3046 14.2795 14.8834C14.1954 14.853 14.1117 14.8257 14.0288 14.8007C13.2394 14.5621 13.0026 15.4478 13.2519 16.3672C13.2991 16.541 13.3544 16.813 13.4167 17.1191C13.5418 17.7333 13.6947 18.4845 13.8648 18.8529C14.2218 19.626 14.5653 19.5622 14.8587 19.4827C15.1039 21.0195 15.4807 22.1117 15.9527 22.8881V24.754C15.9022 24.7704 15.8474 24.7958 15.7883 24.8328C15.6414 24.9249 15.587 25.2516 15.52 25.6541C15.4162 26.2776 15.2821 27.0828 14.7269 27.4795C14.6593 27.5278 14.5755 27.5907 14.4748 27.6662L14.4742 27.6667L14.4741 27.6667C13.8785 28.1137 12.6942 29.0023 10.7828 29.9369C9.79859 30.4181 9.12772 30.5854 8.49243 30.7439C7.75315 30.9283 7.06207 31.1006 5.98156 31.7416C3.97255 32.9334 2.62354 36.4066 2.62354 40.8333L37.3766 40.8333C37.3766 37.4281 36.2189 33.1377 34.1078 31.7416C32.9175 30.9545 32.0077 30.7956 31.0566 30.6296C30.3207 30.5011 29.5601 30.3683 28.6255 29.9369C26.7187 29.0566 25.8042 28.2661 25.2601 27.7958L25.2601 27.7958L25.2599 27.7956C25.1071 27.6636 24.9835 27.5567 24.8754 27.4803L24.8758 27.4851C24.8465 27.462 24.8175 27.4382 24.7887 27.4138C24.7794 27.406 24.7703 27.3981 24.7612 27.3901C24.6022 27.2525 24.4503 27.0975 24.299 26.9431C23.8845 26.5203 23.4743 26.1019 22.9348 26.0549C22.722 26.0364 22.3825 26.0333 21.9801 26.0295C20.902 26.0194 19.3717 26.0051 18.6104 25.6804C17.8143 25.3409 17.4867 24.3183 17.4186 24.08C17.4495 24.1049 17.4734 24.1301 17.4988 24.1569C17.5926 24.2555 17.7076 24.3765 18.2698 24.5908C18.9849 24.8632 20.9258 24.8972 21.6069 24.5908C22.1824 24.3318 23.0984 23.6837 23.9438 22.5232C24.3085 21.7732 24.6037 20.7847 24.8091 19.4858L24.8294 19.4914C25.1297 19.5739 25.4851 19.6715 25.8551 18.8703C26.0252 18.5019 26.1781 17.7507 26.3032 17.1364L26.3032 17.1364C26.3655 16.8304 26.4208 16.5584 26.468 16.3846C26.7173 15.4652 26.4805 14.5795 25.6911 14.8181Z" fill="white"/>
</g>
<path d="M37.4813 5.19489C37.8039 6.52162 39 12.49 39 20C39 27.51 37.8039 33.4784 37.4813 34.8051C37.1509 36.1643 35.8765 37.8434 32.5805 38.2643C28.1012 38.8362 24.7192 39 20 39C15.2808 39 11.8988 38.8362 7.41949 38.2643C4.12348 37.8434 2.84908 36.1643 2.51867 34.8051C2.19615 33.4784 1 27.51 1 20C1.00001 12.49 2.19614 6.52162 2.51867 5.19489C2.84908 3.8357 4.12348 2.15663 7.41949 1.73575C11.8989 1.16375 15.2808 0.999999 20 0.999999C24.7192 0.999999 28.1012 1.16375 32.5805 1.73575C35.8765 2.15663 37.1509 3.8357 37.4813 5.19489Z" stroke="#CFD3D8" stroke-width="2"/>
</svg>
