<svg width="51" height="40" fill="none" xmlns="http://www.w3.org/2000/svg"><path d="M4.485 35.912C1.567 32.812 0 29.336 0 23.701 0 13.784 6.962 4.896 17.085.5l2.53 3.905C10.166 9.516 8.32 16.15 7.582 20.332c1.522-.788 3.514-1.063 5.466-.881 5.111.473 9.14 4.669 9.14 9.885a9.917 9.917 0 0 1-9.917 9.917c-3.04 0-5.947-1.389-7.786-3.34Zm28.334 0c-2.919-3.1-4.485-6.576-4.485-12.211 0-9.917 6.961-18.805 17.085-23.2l2.53 3.905c-9.45 5.11-11.297 11.744-12.033 15.926 1.521-.788 3.513-1.063 5.465-.881 5.111.473 9.138 4.669 9.138 9.885a9.917 9.917 0 0 1-9.917 9.917c-3.04 0-5.947-1.389-7.786-3.34h.003Z" fill="#11253D"/></svg>