<svg width="24" height="23" fill="none" xmlns="http://www.w3.org/2000/svg"><g clip-path="url(#a)" fill="#A0A8B1"><path d="m23.786 11.885-1.998-2.554a1.034 1.034 0 0 0-1.575 0l-2 2.554a.997.997 0 0 0 .522 1.578 1 1 0 0 0 1.054-.348l.071-.094A9 9 0 1 1 17.426 5.2a1.001 1.001 0 0 0 1.43-1.399 11.007 11.007 0 1 0 3.067 8.948l.288.375a.999.999 0 1 0 1.575-1.23v-.008Z"/><path d="M10.999 4.501a1.001 1.001 0 0 0-.998.998v6a.827.827 0 0 0 .03.232.712.712 0 0 0 .08.21.625.625 0 0 0 .108.18l.03.038c.042.05.09.093.143.131l.04.03L12 13.501l2.4 1.8a1 1 0 0 0 1.2-1.601l-.319-.24L14 12.5 12.671 11.5l-.67-.499V5.5a1.001 1.001 0 0 0-1.002-.998Z"/></g><defs><clipPath id="a"><path fill="#fff" transform="translate(0 .5)" d="M0 0h24v22.001H0z"/></clipPath></defs></svg>