<svg width="195" height="40" viewBox="0 0 195 40" fill="none" xmlns="http://www.w3.org/2000/svg">
<path d="M23.7541 23.7552L19.799 19.8002L23.7541 15.833V7.93506L11.8889 19.8002L23.7541 31.6653V23.7552Z" fill="#FF0040"/>
<path d="M0 0V40H40V0H0ZM34.2875 34.2875H5.71253V5.71253H34.2875V34.2875Z" fill="#FF0040"/>
<path d="M58.5817 14.0185C58.5817 13.7242 58.4421 13.4676 58.1628 13.2487C57.8835 13.0298 57.5212 12.8487 57.0759 12.7052C56.6382 12.5618 56.1476 12.4109 55.6041 12.2524C55.0683 12.0863 54.5324 11.8788 53.9965 11.6297C53.4682 11.3806 52.9813 11.0825 52.536 10.7353C52.0983 10.3881 51.7397 9.92016 51.4605 9.33144C51.1812 8.74272 51.0416 8.06343 51.0416 7.29357C51.0416 5.96518 51.6152 4.80284 52.7624 3.80655C53.9172 2.80271 55.3928 2.30079 57.1892 2.30079C57.9288 2.30079 58.627 2.38382 59.2836 2.54986C59.9403 2.70837 60.4762 2.90083 60.8913 3.12726C61.3139 3.35369 61.6838 3.58012 62.0008 3.80655C62.3178 4.02543 62.5367 4.22167 62.6574 4.39527L62.8725 4.6217L60.3139 7.29357C60.2384 7.203 60.1252 7.08978 59.9742 6.95393C59.8308 6.81052 59.5252 6.61806 59.0572 6.37653C58.5968 6.13501 58.1288 6.01424 57.6533 6.01424C57.1552 6.01424 56.7401 6.15387 56.408 6.43314C56.0759 6.7124 55.9098 7.03695 55.9098 7.40679C55.9098 7.70115 56.0495 7.95777 56.3287 8.17665C56.608 8.38798 56.9665 8.56913 57.4043 8.72008C57.8496 8.86349 58.3364 9.01821 58.8647 9.18426C59.4006 9.34276 59.9365 9.54655 60.4724 9.79562C61.0158 10.0447 61.5064 10.3428 61.9442 10.69C62.3895 11.0372 62.7518 11.5052 63.031 12.0939C63.3103 12.6826 63.4499 13.3619 63.4499 14.1318C63.4499 15.6337 62.8574 16.898 61.6725 17.9245C60.4875 18.9509 58.9138 19.4642 56.9514 19.4642C56.1513 19.4642 55.3777 19.3661 54.6305 19.1698C53.8908 18.9811 53.2795 18.7509 52.7964 18.4792C52.3209 18.2075 51.8982 17.9358 51.5284 17.6641C51.1586 17.3923 50.8869 17.1584 50.7133 16.9621L50.4642 16.6791L53.0115 14.0185C53.0417 14.0638 53.0945 14.1242 53.17 14.1997C53.253 14.2752 53.4078 14.4148 53.6342 14.6186C53.8682 14.8224 54.1135 15.0035 54.3701 15.162C54.6267 15.313 54.9475 15.4488 55.3324 15.5696C55.7174 15.6903 56.1023 15.7507 56.4872 15.7507C57.1061 15.7507 57.608 15.5809 57.993 15.2413C58.3855 14.9016 58.5817 14.494 58.5817 14.0185ZM74.6868 2.76497H79.4418L73.6452 13.2034V19H69.2411V13.2034L63.4445 2.76497H68.1995L71.4488 9.02576L74.6868 2.76497ZM91.856 2.76497H96.2601V19H92.4561L85.482 9.95412V19H81.078V2.76497H84.9046L91.856 11.8108V2.76497ZM104.157 15.2865H112.501V19H99.753V2.76497H112.275V6.47842H104.157V9.02576H110.418V12.5128H104.157V15.2865ZM115.054 19V2.76497H122.708C124.421 2.76497 125.832 3.30086 126.942 4.37263C128.059 5.43685 128.617 6.75769 128.617 8.33515C128.617 8.98425 128.519 9.59184 128.323 10.1579C128.134 10.7164 127.904 11.1731 127.632 11.5278C127.361 11.875 127.089 12.1731 126.817 12.4222C126.546 12.6637 126.319 12.8298 126.138 12.9204L125.832 13.0902L129.195 19H124.564L121.779 13.894H119.458V19H115.054ZM123.726 9.48994C124.051 9.18049 124.213 8.79556 124.213 8.33515C124.213 7.86719 124.051 7.48226 123.726 7.18036C123.402 6.8709 122.983 6.71618 122.47 6.71618H119.458V9.95412H122.47C122.983 9.95412 123.402 9.7994 123.726 9.48994ZM139.628 19.4642C137.107 19.4642 134.967 18.6226 133.208 16.9395C131.457 15.2488 130.582 13.2298 130.582 10.8825C130.582 8.53516 131.457 6.51994 133.208 4.83681C134.967 3.14613 137.107 2.30079 139.628 2.30079C140.496 2.30079 141.322 2.41401 142.107 2.64044C142.892 2.86687 143.537 3.13858 144.043 3.45558C144.556 3.77259 145.002 4.08959 145.379 4.40659C145.764 4.72359 146.04 4.99531 146.206 5.22174L146.466 5.55006L143.794 8.33515C143.749 8.27477 143.688 8.19929 143.613 8.10872C143.537 8.0106 143.364 7.84455 143.092 7.61057C142.82 7.36905 142.537 7.15771 142.243 6.97657C141.949 6.78788 141.56 6.62183 141.077 6.47842C140.601 6.32747 140.118 6.25199 139.628 6.25199C138.299 6.25199 137.194 6.69353 136.311 7.57661C135.427 8.45214 134.986 9.5541 134.986 10.8825C134.986 12.2109 135.427 13.3166 136.311 14.1997C137.194 15.0828 138.299 15.5243 139.628 15.5243C140.186 15.5243 140.696 15.4413 141.156 15.2752C141.617 15.1016 141.941 14.9205 142.13 14.7318L142.402 14.4827V12.7392H139.854V9.95412H146.817V16.2149C146.757 16.3055 146.655 16.4262 146.511 16.5772C146.368 16.7206 146.07 16.981 145.617 17.3584C145.164 17.7282 144.677 18.0565 144.156 18.3434C143.636 18.6302 142.968 18.8868 142.152 19.1132C141.337 19.3472 140.496 19.4642 139.628 19.4642ZM158.959 2.76497H163.714L157.918 13.2034V19H153.514V13.2034L147.717 2.76497H152.472L155.721 9.02576L158.959 2.76497ZM56.2608 34.2865H64.6047V38H51.8567V21.765H64.3783V25.4784H56.2608V28.0258H62.5216V31.5128H56.2608V34.2865ZM67.158 21.765H73.4187C75.8944 21.765 77.9436 22.5462 79.5663 24.1085C81.1891 25.6709 82.0004 27.5955 82.0004 29.8825C82.0004 32.1694 81.1853 34.0941 79.555 35.6565C77.9322 37.2188 75.8868 38 73.4187 38H67.158V21.765ZM73.4187 25.7162H71.562V34.0601H73.4187C74.5509 34.0601 75.5283 33.6639 76.351 32.8714C77.1737 32.0713 77.5851 31.075 77.5851 29.8825C77.5851 28.6598 77.1964 27.6597 76.4189 26.8823C75.6415 26.1049 74.6415 25.7162 73.4187 25.7162ZM89.7163 33.5846C90.3125 34.2111 91.022 34.5243 91.8447 34.5243C92.6674 34.5243 93.3731 34.2111 93.9618 33.5846C94.5581 32.9582 94.8562 32.1883 94.8562 31.275V21.765H99.2603V31.275C99.2603 33.3129 98.5584 35.0224 97.1545 36.4037C95.7506 37.7773 93.9807 38.4642 91.8447 38.4642C89.7087 38.4642 87.9388 37.7773 86.5349 36.4037C85.1311 35.0224 84.4291 33.3129 84.4291 31.275V21.765H88.8332V31.275C88.8332 32.1883 89.1275 32.9582 89.7163 33.5846ZM107.429 26.5766C106.546 27.4521 106.104 28.5541 106.104 29.8825C106.104 31.2109 106.546 32.3166 107.429 33.1997C108.312 34.0828 109.418 34.5243 110.746 34.5243C111.569 34.5243 112.346 34.3507 113.078 34.0035C113.811 33.6563 114.339 33.3054 114.663 32.9506L115.15 32.4298L117.698 35.2149C117.637 35.3055 117.547 35.4262 117.426 35.5772C117.313 35.7206 117.041 35.981 116.611 36.3584C116.188 36.7282 115.728 37.0565 115.229 37.3434C114.739 37.6302 114.086 37.8868 113.271 38.1132C112.463 38.3472 111.622 38.4642 110.746 38.4642C108.225 38.4642 106.085 37.6226 104.327 35.9395C102.576 34.2488 101.7 32.2298 101.7 29.8825C101.7 27.5352 102.576 25.5199 104.327 23.8368C106.085 22.1461 108.225 21.3008 110.746 21.3008C111.614 21.3008 112.441 21.414 113.226 21.6404C114.011 21.8669 114.656 22.1386 115.162 22.4556C115.675 22.7726 116.12 23.0896 116.497 23.4066C116.882 23.7236 117.158 23.9953 117.324 24.2217L117.584 24.5501L114.912 27.3351C114.867 27.2748 114.807 27.1993 114.731 27.1087C114.656 27.0106 114.482 26.8446 114.211 26.6106C113.939 26.369 113.656 26.1577 113.361 25.9766C113.067 25.7879 112.678 25.6218 112.195 25.4784C111.72 25.3275 111.237 25.252 110.746 25.252C109.418 25.252 108.312 25.6935 107.429 26.5766ZM128.017 31.0486L126.512 26.2936L125.006 31.0486H128.017ZM129.172 34.5243H123.84L122.685 38H117.93L124.077 21.765H128.946L135.093 38H130.338L129.172 34.5243ZM133.922 21.765H147.372V25.7162H142.843V38H138.439V25.7162H133.922V21.765ZM149.461 38V21.765H153.865V38H149.461ZM162.226 26.5766C161.358 27.4521 160.924 28.5541 160.924 29.8825C160.924 31.2109 161.358 32.3166 162.226 33.1997C163.094 34.0828 164.169 34.5243 165.453 34.5243C166.736 34.5243 167.807 34.0828 168.668 33.1997C169.536 32.3166 169.97 31.2109 169.97 29.8825C169.97 28.5541 169.536 27.4521 168.668 26.5766C167.807 25.6935 166.736 25.252 165.453 25.252C164.169 25.252 163.094 25.6935 162.226 26.5766ZM171.849 23.8368C173.608 25.5199 174.487 27.5352 174.487 29.8825C174.487 32.2298 173.608 34.2488 171.849 35.9395C170.098 37.6226 167.962 38.4642 165.441 38.4642C162.928 38.4642 160.792 37.6226 159.033 35.9395C157.282 34.2488 156.407 32.2298 156.407 29.8825C156.407 27.5352 157.282 25.5199 159.033 23.8368C160.792 22.1461 162.928 21.3008 165.441 21.3008C167.962 21.3008 170.098 22.1461 171.849 23.8368ZM187.83 21.765H192.234V38H188.43L181.456 28.9541V38H177.052V21.765H180.878L187.83 30.8108V21.765Z" fill="#11253D"/>
</svg>
