<svg width="21" height="21" fill="none" xmlns="http://www.w3.org/2000/svg"><path d="M5 3.165a2 2 0 0 1 .46-1.297c.295-.343.695-.537 1.111-.537h7.858c.416 0 .816.194 1.11.537A2 2 0 0 1 16 3.165m-11 0v4.583m0-4.583c-.917-.306-3.209-.367-3.209 1.833 0 1.177.626 3.096 1.375 4.125.652.895 1.856.949 2.365 1.375A7.318 7.318 0 0 1 5 7.748m11-4.583v4.583c0 .96-.184 1.899-.53 2.75M16 3.165c.917-.306 3.208-.367 3.208 1.833 0 1.177-.625 3.096-1.375 4.125-.651.895-1.855.949-2.364 1.375M10.5 14.165c1.459 0 2.858-.676 3.89-1.88a6.51 6.51 0 0 0 1.08-1.787m-4.97 3.667c-1.459 0-2.858-.676-3.89-1.88C5.58 11.082 5 9.45 5 7.748m5.5 6.417v5.5m-3.208 0H10.5m0 0h3.208" stroke="#000" stroke-width="2" stroke-linecap="round" stroke-linejoin="round"/></svg>