<svg width="337" height="33" viewBox="0 0 337 33" fill="none" xmlns="http://www.w3.org/2000/svg">
<path d="M19.5788 19.58L16.3188 16.32L19.5788 13.06V6.54004L9.79883 16.32L19.5788 26.1V19.58Z" fill="#FF0040"/>
<path d="M0 32.64H32.63V0H0V32.64ZM28 27.98H4.66V4.67001H27.97L28 27.98Z" fill="#FF0040"/>
<path d="M162.849 0.369141H160.979V32.3292H162.849V0.369141Z" fill="#FF0040"/>
<path d="M41.9883 32.2692V20.9092H50.6683V23.6692H45.0783V25.2892H49.3683V27.8892H45.0783V29.5092H50.8383V32.2692H41.9883Z" fill="black"/>
<path d="M53.8398 32.2701V20.9101H58.0598C59.6947 20.8529 61.2863 21.4421 62.4898 22.5501C63.0368 23.0712 63.4723 23.698 63.7699 24.3924C64.0674 25.0869 64.2208 25.8345 64.2208 26.59C64.2208 27.3456 64.0674 28.0932 63.7699 28.7877C63.4723 29.4821 63.0368 30.1089 62.4898 30.6301C61.2863 31.738 59.6947 32.3272 58.0598 32.2701H53.8398ZM56.9198 29.5101H58.0598C58.4558 29.5254 58.8508 29.4597 59.2205 29.317C59.5902 29.1742 59.9269 28.9575 60.2098 28.68C60.7535 28.1202 61.0577 27.3705 61.0577 26.59C61.0577 25.8096 60.7535 25.0599 60.2098 24.5C59.9239 24.2268 59.5867 24.0128 59.2177 23.8703C58.8487 23.7279 58.4552 23.6598 58.0598 23.6701H56.9198V29.5101Z" fill="black"/>
<path d="M67.1387 27.5592V20.9092H70.2287V27.5592C70.2152 27.8502 70.2605 28.141 70.3619 28.4142C70.4633 28.6874 70.6186 28.9373 70.8187 29.1492C71.227 29.5266 71.7626 29.7362 72.3187 29.7362C72.8747 29.7362 73.4103 29.5266 73.8187 29.1492C74.02 28.9378 74.1769 28.6882 74.28 28.4151C74.3831 28.1419 74.4302 27.8509 74.4187 27.5592V20.9092H77.4987V27.5592C77.5213 28.2301 77.404 28.8985 77.1544 29.5217C76.9047 30.1449 76.5282 30.7093 76.0487 31.1792C75.0142 32.087 73.685 32.5876 72.3087 32.5876C70.9324 32.5876 69.6031 32.087 68.5687 31.1792C68.0912 30.7087 67.7174 30.1437 67.4712 29.5203C67.2249 28.8969 67.1117 28.2289 67.1387 27.5592Z" fill="black"/>
<path d="M89.8389 28.2893L91.7089 30.3993C91.3386 30.8259 90.9113 31.1995 90.4389 31.5093C89.352 32.2382 88.0673 32.6152 86.7589 32.5893C85.9276 32.614 85.0998 32.4729 84.3238 32.1742C83.5477 31.8754 82.8389 31.425 82.2389 30.8493C81.6667 30.2971 81.2115 29.6353 80.9007 28.9034C80.5899 28.1715 80.4297 27.3845 80.4297 26.5893C80.4297 25.7941 80.5899 25.0071 80.9007 24.2752C81.2115 23.5433 81.6667 22.8815 82.2389 22.3293C83.3361 21.3303 84.7348 20.7252 86.2142 20.6093C87.6936 20.4934 89.1694 20.8734 90.4089 21.6893C90.8599 21.9996 91.2699 22.3659 91.6289 22.7793L89.7589 24.8893C89.5123 24.6175 89.2374 24.3728 88.9389 24.1593C88.3056 23.6955 87.5437 23.4404 86.7589 23.4293C86.3439 23.4293 85.933 23.511 85.5496 23.6698C85.1662 23.8286 84.8178 24.0614 84.5244 24.3549C84.231 24.6483 83.9982 24.9966 83.8394 25.38C83.6806 25.7634 83.5989 26.1743 83.5989 26.5893C83.5989 27.0043 83.6806 27.4152 83.8394 27.7986C83.9982 28.182 84.231 28.5303 84.5244 28.8238C84.8178 29.1172 85.1662 29.3499 85.5496 29.5088C85.933 29.6676 86.3439 29.7493 86.7589 29.7493C87.5516 29.7304 88.3208 29.4763 88.9689 29.0193C89.2851 28.8091 89.5769 28.5643 89.8389 28.2893V28.2893Z" fill="black"/>
<path d="M93.0098 32.2692L97.3098 20.9092H100.72L105.02 32.2692H101.69L100.88 29.8392H97.1498L96.3298 32.2692H93.0098ZM98.0098 27.3192H100.12L99.1198 24.0792H99.0598L98.0098 27.3192Z" fill="black"/>
<path d="M109.479 32.2692V23.6692H106.309V20.9092H115.729V23.6692H112.559V32.2692H109.479Z" fill="black"/>
<path d="M118.369 32.2692V20.9092H121.459V32.2692H118.369Z" fill="black"/>
<path d="M126.299 30.8497C125.727 30.2975 125.272 29.6358 124.961 28.9038C124.65 28.1719 124.49 27.3849 124.49 26.5897C124.49 25.7945 124.65 25.0075 124.961 24.2756C125.272 23.5437 125.727 22.8819 126.299 22.3297C127.536 21.2208 129.138 20.6074 130.799 20.6074C132.46 20.6074 134.063 21.2208 135.299 22.3297C135.872 22.8819 136.327 23.5437 136.638 24.2756C136.948 25.0075 137.109 25.7945 137.109 26.5897C137.109 27.3849 136.948 28.1719 136.638 28.9038C136.327 29.6358 135.872 30.2975 135.299 30.8497C134.063 31.9587 132.46 32.572 130.799 32.572C129.138 32.572 127.536 31.9587 126.299 30.8497V30.8497ZM128.569 24.3397C128.003 24.9412 127.693 25.7396 127.705 26.5657C127.717 27.3918 128.05 28.1807 128.634 28.7656C129.217 29.3504 130.005 29.6852 130.832 29.6991C131.658 29.7129 132.457 29.4047 133.059 28.8397C133.626 28.2382 133.936 27.4398 133.924 26.6137C133.912 25.7876 133.579 24.9986 132.995 24.4138C132.412 23.8289 131.623 23.4942 130.797 23.4803C129.971 23.4665 129.172 23.7747 128.569 24.3397V24.3397Z" fill="black"/>
<path d="M140.148 32.2692V20.9092H142.818L147.688 27.1592V20.9092H150.778V32.2692H148.098L143.228 26.0192V32.2692H140.148Z" fill="black"/>
<path d="M40.7891 14.5192L43.3291 11.7492C43.6104 12.0749 43.9255 12.3699 44.2691 12.6292C45 13.168 45.881 13.4652 46.7891 13.4792C47.3433 13.5312 47.8991 13.3975 48.3691 13.0992C48.5372 12.9919 48.6757 12.8441 48.7718 12.6694C48.8679 12.4946 48.9185 12.2986 48.9191 12.0992C48.9076 11.9159 48.8491 11.7387 48.7492 11.5846C48.6494 11.4305 48.5116 11.3046 48.3491 11.2192C47.9158 10.935 47.4398 10.7223 46.9391 10.5892C46.3162 10.4065 45.7051 10.1861 45.1091 9.92915C44.4705 9.67171 43.855 9.3606 43.2691 8.99915C42.6832 8.62226 42.199 8.10715 41.8591 7.49915C41.4729 6.78805 41.2798 5.98813 41.2991 5.17915C41.303 4.50928 41.4557 3.84868 41.7463 3.2451C42.0368 2.64151 42.4579 2.11004 42.9791 1.68916C44.2263 0.666924 45.8082 0.143199 47.4191 0.219155C48.9296 0.18491 50.4182 0.583971 51.7091 1.36915C52.2156 1.68469 52.6737 2.07208 53.0691 2.51917L50.5291 5.29917C50.3245 5.05556 50.0853 4.84329 49.8191 4.66917C49.2618 4.24556 48.579 4.02029 47.8791 4.02915C47.3965 3.99941 46.916 4.11433 46.4991 4.35917C46.3592 4.4465 46.2431 4.56705 46.1611 4.71012C46.0791 4.85319 46.0337 5.01431 46.0291 5.17915C46.0399 5.3639 46.0979 5.5428 46.1978 5.69865C46.2976 5.8545 46.4358 5.98208 46.5991 6.06916C47.0305 6.34762 47.5029 6.55682 47.9991 6.68916C48.6257 6.86999 49.2403 7.09044 49.8391 7.34916C50.4707 7.6147 51.0823 7.9255 51.6691 8.27915C52.2596 8.65041 52.745 9.16685 53.0791 9.77915C53.4719 10.4881 53.6686 11.2889 53.6491 12.0992C53.6535 12.8052 53.4995 13.5032 53.1983 14.1419C52.8972 14.7805 52.4566 15.3434 51.9091 15.7892C50.6108 16.843 48.9692 17.3807 47.2991 17.2992C45.5516 17.345 43.8317 16.8566 42.3691 15.8991C41.7771 15.5197 41.2447 15.0547 40.7891 14.5192V14.5192Z" fill="black"/>
<path d="M59.4594 16.83V11.1L53.6895 0.709961H58.5395L61.6095 7.05997H61.6995L64.7694 0.709961H69.6195L63.8494 11.1V16.87L59.4594 16.83Z" fill="black"/>
<path d="M70.8691 16.8299V0.669922H74.6691L81.5991 9.55991V0.669922H85.9891V16.8299H82.1791L75.2491 7.93991V16.8299H70.8691Z" fill="black"/>
<path d="M89.3086 16.8299V0.669922H101.659V4.5899H93.6586V6.8999H99.7686V10.5899H93.6586V12.8999H101.849V16.8299H89.3086Z" fill="black"/>
<path d="M104.289 16.8298V0.669814H111.909C112.683 0.641897 113.454 0.768097 114.179 1.04106C114.903 1.31402 115.566 1.7283 116.129 2.25981C116.67 2.76359 117.098 3.37583 117.386 4.0565C117.674 4.73718 117.814 5.47094 117.799 6.20979C117.824 6.87283 117.714 7.53405 117.475 8.15303C117.236 8.77201 116.873 9.33575 116.409 9.8098C116.016 10.2265 115.548 10.5657 115.029 10.8098L118.369 16.8098H113.759L111.099 11.7298H108.679V16.8098L104.289 16.8298ZM108.679 7.82982H111.679C111.907 7.83899 112.135 7.80306 112.35 7.72413C112.564 7.64521 112.761 7.5248 112.929 7.3698C113.085 7.22252 113.209 7.04403 113.291 6.8459C113.374 6.64777 113.414 6.43444 113.409 6.2198C113.414 6.00366 113.374 5.78881 113.292 5.58903C113.209 5.38926 113.086 5.20898 112.929 5.0598C112.588 4.75047 112.14 4.58559 111.679 4.59981H108.679V7.82982Z" fill="black"/>
<path d="M128.708 11.0993V7.85928H135.638V14.0993C135.117 14.718 134.511 15.26 133.838 15.7093C132.259 16.783 130.388 17.3482 128.478 17.3293C127.296 17.363 126.118 17.1611 125.014 16.7353C123.91 16.3096 122.902 15.6684 122.048 14.8493C121.235 14.0632 120.589 13.1216 120.148 12.0805C119.706 11.0394 119.479 9.9201 119.479 8.78927C119.479 7.65844 119.706 6.53916 120.148 5.49807C120.589 4.45699 121.235 3.51538 122.048 2.72928C123.61 1.30598 125.601 0.443766 127.707 0.278959C129.814 0.114151 131.915 0.656154 133.678 1.81927C134.315 2.26121 134.896 2.77829 135.408 3.35928L132.748 6.35928C132.395 5.98504 132.003 5.64979 131.578 5.35928C130.675 4.71002 129.591 4.36029 128.478 4.35928C127.285 4.35928 126.14 4.83339 125.296 5.6773C124.452 6.52122 123.978 7.66581 123.978 8.85928C123.978 10.0528 124.452 11.1973 125.296 12.0413C126.14 12.8852 127.285 13.3593 128.478 13.3593C129.215 13.3815 129.946 13.2236 130.608 12.8993C130.87 12.7599 131.124 12.6064 131.368 12.4393V11.0993H128.708Z" fill="black"/>
<path d="M142.079 16.83V11.1L136.309 0.709961H141.159L144.229 7.05997H144.369L147.439 0.709961H152.289L146.469 11.1V16.87L142.079 16.83Z" fill="black"/>
<path d="M182.61 7.55997C182.61 12.06 179.88 14.44 176.55 14.44C173.22 14.44 170.67 11.77 170.67 7.81998C170.67 3.66998 173.25 0.959961 176.74 0.959961C180.23 0.959961 182.61 3.68997 182.61 7.55997ZM172.48 7.77997C172.48 10.57 173.99 13.07 176.64 13.07C179.29 13.07 180.83 10.61 180.83 7.63998C180.83 5.04998 179.47 2.32999 176.66 2.32999C173.85 2.32999 172.48 4.90997 172.48 7.77997Z" fill="black"/>
<path d="M192.119 1.16992V2.57993H186.489V6.09991C187.02 6.03939 187.554 6.00934 188.089 6.00992C189.275 5.97252 190.448 6.27432 191.469 6.87991C192.002 7.21871 192.436 7.692 192.727 8.25208C193.018 8.81215 193.157 9.43918 193.129 10.0699C193.152 10.5905 193.069 11.1103 192.883 11.5972C192.697 12.084 192.413 12.5274 192.049 12.8999C190.751 13.9505 189.105 14.472 187.439 14.3599C186.556 14.3674 185.674 14.314 184.799 14.1999V1.19992L192.119 1.16992ZM186.489 12.9299C186.954 13.0107 187.427 13.0442 187.899 13.0299C188.4 13.0527 188.902 12.9761 189.374 12.8044C189.846 12.6328 190.279 12.3696 190.649 12.0299C190.892 11.7726 191.08 11.4692 191.204 11.1377C191.328 10.8063 191.384 10.4534 191.369 10.0999C191.386 9.6833 191.296 9.26925 191.109 8.89667C190.922 8.52408 190.643 8.20517 190.299 7.96991C189.556 7.50836 188.693 7.27858 187.819 7.30991C187.439 7.30991 186.909 7.30992 186.489 7.38992V12.9299Z" fill="black"/>
<path d="M195.369 1.32943C196.44 1.15003 197.524 1.06304 198.609 1.06942C199.921 0.972029 201.224 1.35991 202.269 2.15942C202.645 2.50489 202.942 2.9279 203.139 3.39923C203.336 3.87056 203.428 4.379 203.409 4.88943C203.435 5.39748 203.36 5.90564 203.188 6.38452C203.017 6.8634 202.752 7.30349 202.409 7.67941C201.875 8.17759 201.244 8.56211 200.557 8.80963C199.869 9.05715 199.139 9.16252 198.409 9.11941C197.956 9.13471 197.503 9.09442 197.059 8.99942V14.2294H195.369V1.32943ZM197.059 7.61941C197.514 7.72596 197.982 7.77303 198.449 7.75943C200.449 7.75943 201.729 6.75942 201.729 4.96942C201.729 3.17942 200.499 2.40942 198.639 2.40942C198.109 2.39438 197.579 2.44138 197.059 2.54943V7.61941Z" fill="black"/>
<path d="M207.799 10.0994L206.439 14.2094H204.699L209.139 1.14941H211.139L215.599 14.2094H213.799L212.399 10.0994H207.799ZM212.079 8.78943L210.799 5.09943C210.509 4.23943 210.319 3.46941 210.119 2.70941C209.919 3.48941 209.709 4.27944 209.459 5.07944L208.179 8.85944L212.079 8.78943Z" fill="black"/>
<path d="M217.04 1.94984C218.065 1.28061 219.266 0.932427 220.49 0.949841C222.76 0.949841 224.33 2.12984 224.33 4.13984C224.317 4.90029 224.041 5.6327 223.548 6.21248C223.056 6.79225 222.378 7.18356 221.63 7.31984V7.31984C222.485 7.33822 223.298 7.69285 223.893 8.30684C224.489 8.92083 224.818 9.74469 224.81 10.5998C224.81 13.3098 222.47 14.3898 220.08 14.3898C218.888 14.4164 217.71 14.1229 216.67 13.5398L217.12 12.2198C218.017 12.7211 219.023 12.9957 220.05 13.0198C221.98 13.0198 223.05 11.9698 223.05 10.5398C223.05 8.53984 221.17 8.01985 219.5 8.01985H218.73V6.73985H219.5C221.23 6.73985 222.57 5.66983 222.57 4.33983C222.57 3.00983 221.63 2.27983 220.22 2.27983C219.255 2.3128 218.317 2.61031 217.51 3.13984L217.04 1.94984Z" fill="black"/>
<path d="M238.239 7.55997C238.239 12.06 235.509 14.44 232.179 14.44C228.849 14.44 226.299 11.77 226.299 7.81998C226.299 3.66998 228.879 0.959961 232.369 0.959961C235.859 0.959961 238.239 3.68997 238.239 7.55997ZM228.109 7.77997C228.109 10.57 229.619 13.07 232.269 13.07C234.919 13.07 236.459 10.61 236.459 7.63998C236.459 5.04998 235.099 2.32999 232.289 2.32999C229.479 2.32999 228.109 4.90997 228.109 7.77997Z" fill="black"/>
<path d="M240.43 1.33957C241.446 1.1552 242.477 1.06483 243.51 1.06958C244.781 0.952756 246.053 1.28927 247.1 2.0196C247.452 2.28997 247.733 2.64091 247.921 3.04291C248.109 3.44491 248.198 3.8862 248.18 4.32959C248.159 4.97928 247.934 5.60592 247.537 6.12095C247.141 6.63597 246.592 7.01331 245.97 7.19959V7.19959C246.727 7.35128 247.409 7.75925 247.901 8.35483C248.392 8.95041 248.664 9.69723 248.67 10.4696C248.676 10.9593 248.581 11.4451 248.39 11.896C248.198 12.347 247.916 12.7534 247.56 13.0896C246.65 13.9196 245.18 14.3096 243.05 14.3096C242.174 14.3165 241.298 14.263 240.43 14.1496V1.33957ZM242.12 6.68958H243.65C245.43 6.68958 246.48 5.75958 246.48 4.49958C246.48 2.96958 245.31 2.36957 243.61 2.36957C243.11 2.35581 242.611 2.39607 242.12 2.4896V6.68958ZM242.12 12.9496C242.587 13.0145 243.058 13.0413 243.53 13.0296C245.27 13.0296 246.88 12.3896 246.88 10.4896C246.88 8.5896 245.35 7.96958 243.51 7.96958H242.12V12.9496Z" fill="black"/>
<path d="M253.039 10.0999L251.689 14.2099H249.939L254.369 1.16992H256.369L260.819 14.2299H259.019L257.679 10.0999H253.039ZM257.329 8.78992L256.049 5.09991C255.759 4.23991 255.559 3.4699 255.369 2.7099C255.176 3.4899 254.956 4.27993 254.709 5.07993L253.369 8.80991L257.329 8.78992Z" fill="black"/>
<path d="M265.27 2.59991H261.27V1.16992H270.94V2.59991H266.94V14.2299H265.27V2.59991Z" fill="black"/>
<path d="M279.18 8.09991H274.11V12.8099H279.76V14.2199H272.42V1.16992H279.47V2.57993H274.11V6.7099H279.18V8.09991Z" fill="black"/>
<path d="M290.539 1.16992V14.2299H288.829V2.57993H284.509V6.57993C284.509 9.40993 284.389 12.5799 282.509 13.8099C281.911 14.1946 281.22 14.4089 280.509 14.4299L280.289 13.0699C280.802 12.9613 281.278 12.7199 281.669 12.3699C282.669 11.3699 282.809 8.8099 282.809 6.7099V1.2099L290.539 1.16992Z" fill="black"/>
<path d="M295.15 1.16992V6.09991C295.54 6.04991 296.31 6.00992 296.76 6.00992C299.43 6.00992 301.76 7.18993 301.76 10.0799C301.796 11.1037 301.438 12.1023 300.76 12.8699C299.458 13.9754 297.773 14.5249 296.07 14.3999C295.187 14.4074 294.305 14.354 293.43 14.2399V1.23993L295.15 1.16992ZM295.15 12.9299C295.608 13.0102 296.074 13.0437 296.54 13.0299C298.42 13.0299 300.03 12.1199 300.03 10.1199C300.03 8.1199 298.38 7.28992 296.52 7.28992C296.061 7.29337 295.604 7.32678 295.15 7.38992V12.9299Z" fill="black"/>
<path d="M305.71 1.16992V6.63992H312.03V1.16992H313.73V14.2299H312.03V8.09991H305.71V14.2199H304.02V1.16992H305.71Z" fill="black"/>
<path d="M318.77 10.0999L317.37 14.2299H315.67L320.11 1.16992H322.11L326.57 14.2299H324.77L323.37 10.0999H318.77ZM323.05 8.78992L321.77 5.09991C321.48 4.23991 321.29 3.4699 321.09 2.7099C320.89 3.4899 320.68 4.27993 320.43 5.07993L319.15 8.85992L323.05 8.78992Z" fill="black"/>
<path d="M327.369 14.2293C327.577 13.8508 327.754 13.4562 327.899 13.0493C328.459 11.5593 328.809 9.73928 329.899 8.66928C330.204 8.36516 330.578 8.13881 330.989 8.00928V7.94928C330.196 7.86534 329.462 7.49101 328.929 6.89838C328.395 6.30574 328.1 5.53672 328.099 4.73929C328.083 4.23369 328.182 3.73102 328.39 3.2699C328.598 2.80878 328.909 2.40149 329.299 2.07928C330.399 1.33765 331.716 0.985609 333.039 1.07928C334.085 1.0731 335.13 1.16347 336.159 1.34927V14.2393H334.369V8.57928H333.169C332.829 8.55067 332.486 8.59275 332.162 8.70288C331.839 8.81301 331.542 8.98881 331.289 9.21927C330.389 10.1293 330.029 12.0493 329.559 13.2893C329.441 13.6169 329.298 13.9346 329.129 14.2393L327.369 14.2293ZM334.449 2.52927C333.926 2.421 333.393 2.36738 332.859 2.36926C331.189 2.36926 329.779 3.00927 329.779 4.80927C329.779 6.37927 331.169 7.28928 333.009 7.28928C333.569 7.28928 334.119 7.28928 334.449 7.28928V2.52927Z" fill="black"/>
<path d="M180.889 19.1895V32.2495H179.199V20.5995H173.139V32.2495H171.449V19.1895H180.889Z" fill="black"/>
<path d="M192.418 19.1895V32.2495H190.708V20.5995H186.368V24.5995C186.368 27.4295 186.248 30.5995 184.368 31.8295C183.771 32.2141 183.079 32.4285 182.368 32.4495L182.148 31.0894C182.662 30.9808 183.138 30.7395 183.528 30.3895C184.528 29.3895 184.668 26.8295 184.668 24.7295V19.2295L192.418 19.1895Z" fill="black"/>
<path d="M197.449 28.0994L196.099 32.2094H194.369L198.809 19.1494H200.809L205.269 32.2094H203.469L202.069 28.0994H197.449ZM201.739 26.7894L200.459 23.0994C200.159 22.2394 199.969 21.4694 199.779 20.7094C199.579 21.4894 199.369 22.2794 199.119 23.0794L197.839 26.8594L201.739 26.7894Z" fill="black"/>
<path d="M209.68 20.6194H205.68V19.1895H215.37V20.6194H211.37V32.2495H209.67L209.68 20.6194Z" fill="black"/>
<path d="M223.199 18.6696V19.8297C225.959 19.9497 228.709 21.6096 228.709 25.7196C228.709 29.8296 225.959 31.3997 223.189 31.5497V32.7697H221.559V31.5497C218.829 31.3797 216.049 29.9297 216.049 25.7997C215.991 25.0349 216.092 24.2663 216.344 23.5421C216.597 22.8179 216.996 22.1536 217.517 21.5906C218.038 21.0275 218.669 20.5779 219.371 20.2698C220.074 19.9616 220.832 19.8016 221.599 19.7997V18.6396L223.199 18.6696ZM221.579 21.0996C219.869 21.1996 217.799 22.3797 217.799 25.7697C217.799 28.8897 219.659 30.2096 221.579 30.3996V21.0996ZM223.189 30.3996C225.069 30.2496 226.959 28.9896 226.959 25.7496C226.959 22.5096 225.069 21.1996 223.189 21.0996V30.3996Z" fill="black"/>
<path d="M242.04 25.5895C242.04 30.0795 239.31 32.4595 235.97 32.4595C232.63 32.4595 230.1 29.7895 230.1 25.8395C230.1 21.6895 232.68 18.9795 236.17 18.9795C239.66 18.9795 242.04 21.7095 242.04 25.5895ZM231.9 25.7995C231.9 28.5895 233.42 31.0895 236.07 31.0895C238.72 31.0895 240.26 28.6295 240.26 25.6595C240.26 23.0695 238.9 20.3495 236.09 20.3495C233.28 20.3495 231.9 22.9295 231.9 25.7995V25.7995Z" fill="black"/>
<path d="M244.229 19.3494C245.296 19.1704 246.376 19.0834 247.459 19.0894C248.774 18.9904 250.08 19.3783 251.129 20.1794C251.505 20.5249 251.802 20.9479 251.998 21.4192C252.195 21.8905 252.287 22.399 252.269 22.9094C252.294 23.4174 252.219 23.9256 252.048 24.4045C251.876 24.8834 251.611 25.3235 251.269 25.6994C250.734 26.1976 250.104 26.5821 249.416 26.8296C248.729 27.0771 247.998 27.1825 247.269 27.1394C246.812 27.1541 246.355 27.1138 245.909 27.0194V32.2494H244.229V19.3494ZM245.909 25.6394C246.367 25.7454 246.838 25.7924 247.309 25.7794C249.309 25.7794 250.579 24.7794 250.579 22.9894C250.579 21.1994 249.359 20.4294 247.499 20.4294C246.965 20.4145 246.431 20.4615 245.909 20.5694V25.6394Z" fill="black"/>
<path d="M265.539 26.5195C265.449 24.6895 265.329 22.5195 265.349 20.8795H265.289C264.839 22.4095 264.289 24.0295 263.639 25.8795L261.339 32.2095H260.059L257.949 25.9895C257.329 24.1495 256.799 22.4695 256.429 20.9195C256.429 22.5395 256.289 24.7295 256.169 26.6895L255.819 32.2895H254.219L255.129 19.2295H257.279L259.509 25.5495C260.049 27.1595 260.509 28.5495 260.819 29.9495H260.879C261.209 28.6295 261.679 27.1895 262.259 25.5495L264.579 19.2295H266.729L267.549 32.2895H265.869L265.539 26.5195Z" fill="black"/>
<path d="M272.229 28.0994L270.869 32.2094H269.129L273.559 19.1494H275.559L280.019 32.2094H278.209L276.859 28.0994H272.229ZM276.509 26.7894L275.229 23.0994C274.939 22.2394 274.749 21.4694 274.549 20.7094C274.359 21.4894 274.149 22.2794 273.889 23.0794L272.619 26.8594L276.509 26.7894Z" fill="black"/>
</svg>
