<svg width="168" height="40" viewBox="0 0 168 40" fill="none" xmlns="http://www.w3.org/2000/svg">
<path d="M23.7538 23.7538L19.7988 19.7987L23.7538 15.8316V7.93359L11.8887 19.7987L23.7538 31.6639V23.7538Z" fill="#FF0040"/>
<path d="M0 0V40H40V0H0ZM34.2875 34.2875H5.71253V5.71253H34.2875V34.2875Z" fill="#FF0040"/>
<path d="M58.8828 13.8438C58.8828 13.5391 58.7383 13.2734 58.4492 13.0469C58.1602 12.8203 57.7852 12.6328 57.3242 12.4844C56.8711 12.3359 56.3633 12.1797 55.8008 12.0156C55.2461 11.8438 54.6914 11.6289 54.1367 11.3711C53.5898 11.1133 53.0859 10.8047 52.625 10.4453C52.1719 10.0859 51.8008 9.60156 51.5117 8.99219C51.2227 8.38281 51.0781 7.67969 51.0781 6.88281C51.0781 5.50781 51.6719 4.30469 52.8594 3.27344C54.0547 2.23437 55.582 1.71484 57.4414 1.71484C58.207 1.71484 58.9297 1.80078 59.6094 1.97266C60.2891 2.13672 60.8438 2.33594 61.2734 2.57031C61.7109 2.80469 62.0938 3.03906 62.4219 3.27344C62.75 3.5 62.9766 3.70313 63.1016 3.88281L63.3242 4.11719L60.6758 6.88281C60.5977 6.78906 60.4805 6.67188 60.3242 6.53125C60.1758 6.38281 59.8594 6.18359 59.375 5.93359C58.8984 5.68359 58.4141 5.55859 57.9219 5.55859C57.4062 5.55859 56.9766 5.70312 56.6328 5.99219C56.2891 6.28125 56.1172 6.61719 56.1172 7C56.1172 7.30469 56.2617 7.57031 56.5508 7.79688C56.8398 8.01562 57.2109 8.20312 57.6641 8.35938C58.125 8.50781 58.6289 8.66797 59.1758 8.83984C59.7305 9.00391 60.2852 9.21484 60.8398 9.47266C61.4023 9.73047 61.9102 10.0391 62.3633 10.3984C62.8242 10.7578 63.1992 11.2422 63.4883 11.8516C63.7773 12.4609 63.9219 13.1641 63.9219 13.9609C63.9219 15.5156 63.3086 16.8242 62.082 17.8867C60.8555 18.9492 59.2266 19.4805 57.1953 19.4805C56.3672 19.4805 55.5664 19.3789 54.793 19.1758C54.0273 18.9805 53.3945 18.7422 52.8945 18.4609C52.4023 18.1797 51.9648 17.8984 51.582 17.6172C51.1992 17.3359 50.918 17.0938 50.7383 16.8906L50.4805 16.5977L53.1172 13.8438C53.1484 13.8906 53.2031 13.9531 53.2812 14.0312C53.3672 14.1094 53.5273 14.2539 53.7617 14.4648C54.0039 14.6758 54.2578 14.8633 54.5234 15.0273C54.7891 15.1836 55.1211 15.3242 55.5195 15.4492C55.918 15.5742 56.3164 15.6367 56.7148 15.6367C57.3555 15.6367 57.875 15.4609 58.2734 15.1094C58.6797 14.7578 58.8828 14.3359 58.8828 13.8438ZM75.553 2.19531H80.4748L74.4748 13V19H69.9163V13L63.9163 2.19531H68.8381L72.2014 8.67578L75.553 2.19531ZM93.3247 2.19531H97.8833V19H93.9458L86.727 9.63672V19H82.1684V2.19531H86.1294L93.3247 11.5586V2.19531ZM106.057 15.1562H114.694V19H101.499V2.19531H114.46V6.03906H106.057V8.67578H112.538V12.2852H106.057V15.1562ZM117.337 19V2.19531H125.259C127.032 2.19531 128.493 2.75 129.642 3.85938C130.798 4.96094 131.376 6.32813 131.376 7.96094C131.376 8.63281 131.274 9.26172 131.071 9.84766C130.876 10.4258 130.638 10.8984 130.356 11.2656C130.075 11.625 129.794 11.9336 129.513 12.1914C129.231 12.4414 128.997 12.6133 128.81 12.707L128.493 12.8828L131.974 19H127.181L124.298 13.7148H121.895V19H117.337ZM126.313 9.15625C126.649 8.83594 126.817 8.4375 126.817 7.96094C126.817 7.47656 126.649 7.07812 126.313 6.76562C125.978 6.44531 125.544 6.28516 125.013 6.28516H121.895V9.63672H125.013C125.544 9.63672 125.978 9.47656 126.313 9.15625ZM142.773 19.4805C140.163 19.4805 137.948 18.6094 136.128 16.8672C134.316 15.1172 133.409 13.0273 133.409 10.5977C133.409 8.16797 134.316 6.08203 136.128 4.33984C137.948 2.58984 140.163 1.71484 142.773 1.71484C143.671 1.71484 144.527 1.83203 145.339 2.06641C146.152 2.30078 146.82 2.58203 147.343 2.91016C147.874 3.23828 148.335 3.56641 148.726 3.89453C149.124 4.22266 149.409 4.50391 149.581 4.73828L149.851 5.07812L147.085 7.96094C147.038 7.89844 146.976 7.82031 146.898 7.72656C146.82 7.625 146.64 7.45312 146.359 7.21094C146.077 6.96094 145.784 6.74219 145.48 6.55469C145.175 6.35937 144.773 6.1875 144.273 6.03906C143.78 5.88281 143.28 5.80469 142.773 5.80469C141.398 5.80469 140.253 6.26172 139.339 7.17578C138.425 8.08203 137.968 9.22266 137.968 10.5977C137.968 11.9727 138.425 13.1172 139.339 14.0312C140.253 14.9453 141.398 15.4023 142.773 15.4023C143.351 15.4023 143.878 15.3164 144.355 15.1445C144.831 14.9648 145.167 14.7773 145.363 14.582L145.644 14.3242V12.5195H143.007V9.63672H150.214V16.1172C150.152 16.2109 150.046 16.3359 149.898 16.4922C149.749 16.6406 149.441 16.9102 148.972 17.3008C148.503 17.6836 147.999 18.0234 147.46 18.3203C146.921 18.6172 146.23 18.8828 145.386 19.1172C144.542 19.3594 143.671 19.4805 142.773 19.4805ZM162.783 2.19531H167.705L161.705 13V19H157.146V13L151.146 2.19531H156.068L159.431 8.67578L162.783 2.19531ZM67.1562 22.1953V39H62.5977V32.5195H56.4805V39H51.9219V22.1953H56.4805V28.4414H62.5977V22.1953H67.1562ZM76.1155 34.4297C76.7327 35.0781 77.467 35.4023 78.3186 35.4023C79.1702 35.4023 79.9006 35.0781 80.51 34.4297C81.1272 33.7812 81.4358 32.9844 81.4358 32.0391V22.1953H85.9944V32.0391C85.9944 34.1484 85.2678 35.918 83.8147 37.3477C82.3616 38.7695 80.5295 39.4805 78.3186 39.4805C76.1077 39.4805 74.2756 38.7695 72.8225 37.3477C71.3694 35.918 70.6428 34.1484 70.6428 32.0391V22.1953H75.2014V32.0391C75.2014 32.9844 75.5061 33.7812 76.1155 34.4297ZM97.52 39H89.4809V22.1953H97.0395C98.7661 22.1953 100.157 22.6367 101.211 23.5195C102.266 24.4023 102.793 25.4414 102.793 26.6367C102.793 27.0977 102.719 27.5391 102.571 27.9609C102.422 28.375 102.243 28.707 102.032 28.957C101.821 29.207 101.61 29.4258 101.399 29.6133C101.196 29.793 101.016 29.9219 100.86 30L100.637 30.1172C100.715 30.1484 100.821 30.1953 100.954 30.2578C101.094 30.3125 101.336 30.4492 101.68 30.668C102.024 30.8789 102.329 31.1211 102.594 31.3945C102.86 31.668 103.098 32.043 103.309 32.5195C103.528 32.9961 103.637 33.5156 103.637 34.0781C103.637 35.3906 103.063 36.5391 101.915 37.5234C100.774 38.5078 99.3091 39 97.52 39ZM94.0395 35.4023H97.1567C97.688 35.4023 98.1216 35.2422 98.4575 34.9219C98.7934 34.6016 98.9614 34.2031 98.9614 33.7266C98.9614 33.2422 98.7934 32.8398 98.4575 32.5195C98.1216 32.1992 97.688 32.0391 97.1567 32.0391H94.0395V35.4023ZM96.5591 25.8047H94.0395V28.6758H96.5591C97.0356 28.6758 97.4145 28.5469 97.6958 28.2891C97.977 28.0234 98.1177 27.6758 98.1177 27.2461C98.1177 26.8086 97.977 26.4609 97.6958 26.2031C97.4145 25.9375 97.0356 25.8047 96.5591 25.8047Z" fill="#11253D"/>
</svg>
